[img]http://www.shotpix.com/images/24940000574214150568.png[/img][url]http://www.imdb.com/title/tt0233656[/url]
	
[img]http://www.shotpix.com/images/77085747293401738346.gif[/img]

[b]Movie :- Epicenter (2000)

Run Time :- 102 min
  
Genres :-Action | Adventure | Drama  

Releasing Date :- 21 March 2001 (Kuwait)

Ratings: 2.9/10 from 930 users  

Director :- Richard Pepin

Writer :- Gregg McBride

Stars :- Traci Lords, Gary Daniels, Jeff Fahey [/b]


[img]http://www.shotpix.com/images/59022378797514383087.gif[/img]

[b]Epicenter concerns brassy, beautiful Amanda Foster, a down-on-her-luck San Francisco F.B.I. Agent who's been assigned to protect a Computer Hacker-turned-State's-Witness, Nick Constantine, from the mob. On the Day of the assignment, the city is rocked by a devastating earthquake, forcing Amanda and Nick to fight their way through the ravaged city streets while being pursued by ruthless assassins and a corrupt F.B.I. Agent.[/b]

[img]http://www.shotpix.com/images/44663617507488027387.gif[/img]

[code]Complete name                            : [18+]Epicenter_(2000)_DVDRip_high_(hindi)_{302mb}_{somnath2003}
Format                                   : Matroska
Format version                           : Version 2
File size                                : 302 MiB
Duration                                 : 1h 38mn
Overall bit rate                         : 430 Kbps
Writing application                      : Lavf53.24.2
Writing library                          : Lavf53.24.2[/code]

[img]http://www.shotpix.com/images/34235854661596452485.gif[/img]

[code]ID                                       : 1
Format                                   : AVC
Format/Info                              : Advanced Video Codec
Format profile                           : Baseline@L3.0
Format settings, CABAC                   : No
Format settings, ReFrames                : 1 frame
Codec ID                                 : V_MPEG4/ISO/AVC
Duration                                 : 1h 38mn
Bit rate                                 : 230 Kbps
Width                                    : 640 pixels
Height                                   : 466 pixels
Display aspect ratio                     : 1.373
Frame rate mode                          : Constant
Frame rate                               : 25.000 fps
Color space                              : YUV
Chroma subsampling                       : 4:2:0
Bit depth                                : 8 bits
Scan type                                : Progressive
Bits/(Pixel*Frame)                       : 0.031
Stream size                              : 161 MiB (53%)
Writing library                          : x264 core 118
Default                                  : Yes
Forced                                   : No[/code]

[img]http://www.shotpix.com/images/54760780871226007874.gif[/img]

[code]ID                                       : 2
Format                                   : AC-3
Format/Info                              : Audio Coding 3
Mode extension                           : CM (complete main)
Format settings, Endianness              : Big
Codec ID                                 : A_AC3
Duration                                 : 1h 38mn
Bit rate mode                            : Constant
Bit rate                                 : 192 Kbps
Channel(s)                               : 2 channels
Channel positions                        : Front: L R
Sampling rate                            : 48.0 KHz
Bit depth                                : 16 bits
Compression mode                         : Lossy
Stream size                              : 135 MiB (45%)
Default                                  : Yes
Forced                                   : No[/code]

[img]http://www.shotpix.com/images/50894759808379845433.gif[/img]


[img]http://img856.imageshack.us/img856/226/18epicenter2000dvdriphi.jpg[/img]


[img]http://www.shotpix.com/images/37530658244654420663.jpg[/img]


[img]http://www.shotpix.com/images/54805531119757981546.gif[/img]